<mxfile host="app.diagrams.net" modified="2024-04-27T04:36:05.371Z" agent="Mozilla/5.0 (Windows NT 10.0; Win64; x64) AppleWebKit/537.36 (KHTML, like Gecko) Chrome/123.0.0.0 Safari/537.36" etag="7zUElj_36Yl7Gwu62X2e" version="21.3.2" type="device">
  <diagram name="Страница 1" id="11j44J4aMWJnoxPgVAUS">
    <mxGraphModel dx="521" dy="555" grid="1" gridSize="10" guides="1" tooltips="1" connect="1" arrows="1" fold="1" page="1" pageScale="1" pageWidth="827" pageHeight="1169" math="0" shadow="0">
      <root>
        <mxCell id="0" />
        <mxCell id="1" parent="0" />
        <mxCell id="lNbD9oMvBeQjA2AYJ953-1" value="АРМ &quot;Администратор ресторана&quot;" style="ellipse;whiteSpace=wrap;html=1;aspect=fixed;" vertex="1" parent="1">
          <mxGeometry x="230" y="220" width="110" height="110" as="geometry" />
        </mxCell>
        <mxCell id="lNbD9oMvBeQjA2AYJ953-2" value="Клиенты" style="rounded=0;whiteSpace=wrap;html=1;" vertex="1" parent="1">
          <mxGeometry x="80" y="370" width="90" height="50" as="geometry" />
        </mxCell>
        <mxCell id="lNbD9oMvBeQjA2AYJ953-3" value="Отдел учета" style="rounded=0;whiteSpace=wrap;html=1;" vertex="1" parent="1">
          <mxGeometry x="450" y="140" width="90" height="50" as="geometry" />
        </mxCell>
        <mxCell id="lNbD9oMvBeQjA2AYJ953-4" value="Поставщики" style="rounded=0;whiteSpace=wrap;html=1;" vertex="1" parent="1">
          <mxGeometry x="80" y="80" width="90" height="50" as="geometry" />
        </mxCell>
        <mxCell id="lNbD9oMvBeQjA2AYJ953-5" value="" style="endArrow=classic;html=1;rounded=0;exitX=0.5;exitY=0;exitDx=0;exitDy=0;entryX=0;entryY=0.5;entryDx=0;entryDy=0;" edge="1" parent="1" source="lNbD9oMvBeQjA2AYJ953-2" target="lNbD9oMvBeQjA2AYJ953-1">
          <mxGeometry width="50" height="50" relative="1" as="geometry">
            <mxPoint x="130" y="360" as="sourcePoint" />
            <mxPoint x="180" y="310" as="targetPoint" />
            <Array as="points">
              <mxPoint x="125" y="275" />
            </Array>
          </mxGeometry>
        </mxCell>
        <mxCell id="lNbD9oMvBeQjA2AYJ953-7" value="Заказ" style="edgeLabel;html=1;align=center;verticalAlign=middle;resizable=0;points=[];" vertex="1" connectable="0" parent="lNbD9oMvBeQjA2AYJ953-5">
          <mxGeometry x="0.11" y="-2" relative="1" as="geometry">
            <mxPoint as="offset" />
          </mxGeometry>
        </mxCell>
        <mxCell id="lNbD9oMvBeQjA2AYJ953-8" value="" style="endArrow=classic;html=1;rounded=0;exitX=0.5;exitY=1;exitDx=0;exitDy=0;entryX=1;entryY=0.5;entryDx=0;entryDy=0;" edge="1" parent="1" source="lNbD9oMvBeQjA2AYJ953-1" target="lNbD9oMvBeQjA2AYJ953-2">
          <mxGeometry width="50" height="50" relative="1" as="geometry">
            <mxPoint x="260" y="320" as="sourcePoint" />
            <mxPoint x="310" y="270" as="targetPoint" />
            <Array as="points">
              <mxPoint x="285" y="395" />
            </Array>
          </mxGeometry>
        </mxCell>
        <mxCell id="lNbD9oMvBeQjA2AYJ953-9" value="Блюда" style="edgeLabel;html=1;align=center;verticalAlign=middle;resizable=0;points=[];" vertex="1" connectable="0" parent="lNbD9oMvBeQjA2AYJ953-8">
          <mxGeometry x="-0.1667" y="2" relative="1" as="geometry">
            <mxPoint as="offset" />
          </mxGeometry>
        </mxCell>
        <mxCell id="lNbD9oMvBeQjA2AYJ953-10" value="" style="endArrow=classic;html=1;rounded=0;entryX=0;entryY=0.5;entryDx=0;entryDy=0;" edge="1" parent="1" target="lNbD9oMvBeQjA2AYJ953-3">
          <mxGeometry width="50" height="50" relative="1" as="geometry">
            <mxPoint x="340" y="270" as="sourcePoint" />
            <mxPoint x="390" y="220" as="targetPoint" />
            <Array as="points">
              <mxPoint x="370" y="270" />
              <mxPoint x="370" y="220" />
              <mxPoint x="370" y="165" />
            </Array>
          </mxGeometry>
        </mxCell>
        <mxCell id="lNbD9oMvBeQjA2AYJ953-11" value="Отчеты о движении&lt;br&gt;&amp;nbsp;и наличии продуктов" style="edgeLabel;html=1;align=center;verticalAlign=middle;resizable=0;points=[];" vertex="1" connectable="0" parent="lNbD9oMvBeQjA2AYJ953-10">
          <mxGeometry x="0.1423" y="1" relative="1" as="geometry">
            <mxPoint as="offset" />
          </mxGeometry>
        </mxCell>
        <mxCell id="lNbD9oMvBeQjA2AYJ953-12" value="" style="endArrow=classic;html=1;rounded=0;exitX=0.416;exitY=1;exitDx=0;exitDy=0;exitPerimeter=0;entryX=0;entryY=0;entryDx=0;entryDy=0;" edge="1" parent="1" source="lNbD9oMvBeQjA2AYJ953-4" target="lNbD9oMvBeQjA2AYJ953-1">
          <mxGeometry width="50" height="50" relative="1" as="geometry">
            <mxPoint x="260" y="320" as="sourcePoint" />
            <mxPoint x="310" y="270" as="targetPoint" />
            <Array as="points">
              <mxPoint x="117" y="236" />
            </Array>
          </mxGeometry>
        </mxCell>
        <mxCell id="lNbD9oMvBeQjA2AYJ953-13" value="Продукты" style="edgeLabel;html=1;align=center;verticalAlign=middle;resizable=0;points=[];" vertex="1" connectable="0" parent="lNbD9oMvBeQjA2AYJ953-12">
          <mxGeometry x="-0.3688" y="1" relative="1" as="geometry">
            <mxPoint as="offset" />
          </mxGeometry>
        </mxCell>
        <mxCell id="lNbD9oMvBeQjA2AYJ953-14" value="" style="endArrow=classic;html=1;rounded=0;exitX=1;exitY=0.5;exitDx=0;exitDy=0;entryX=0.5;entryY=0;entryDx=0;entryDy=0;" edge="1" parent="1" source="lNbD9oMvBeQjA2AYJ953-4" target="lNbD9oMvBeQjA2AYJ953-1">
          <mxGeometry width="50" height="50" relative="1" as="geometry">
            <mxPoint x="260" y="320" as="sourcePoint" />
            <mxPoint x="310" y="270" as="targetPoint" />
            <Array as="points">
              <mxPoint x="285" y="105" />
            </Array>
          </mxGeometry>
        </mxCell>
        <mxCell id="lNbD9oMvBeQjA2AYJ953-15" value="Приходные документы" style="edgeLabel;html=1;align=center;verticalAlign=middle;resizable=0;points=[];" vertex="1" connectable="0" parent="lNbD9oMvBeQjA2AYJ953-14">
          <mxGeometry x="-0.3913" y="1" relative="1" as="geometry">
            <mxPoint as="offset" />
          </mxGeometry>
        </mxCell>
      </root>
    </mxGraphModel>
  </diagram>
</mxfile>
